HIERARCHY
ROOT Hips
{
    OFFSET 0.000000 0.000000 0.000000
    CHANNELS 6 Xposition Yposition Zposition Zrotation Xrotation Yrotation
    JOINT Spine
    {
        OFFSET -0.000000 0.089591 0.000000
        CHANNELS 3 Zrotation Xrotation Yrotation
        JOINT Spine1
        {
            OFFSET 0.000000 0.181340 -0.000000
            CHANNELS 3 Zrotation Xrotation Yrotation
            JOINT Neck
            {
                OFFSET 0.000000 0.138314 0.000000
                CHANNELS 3 Zrotation Xrotation Yrotation
                JOINT Head
                {
                    OFFSET 0.000000 0.091545 0.016974
                    CHANNELS 3 Zrotation Xrotation Yrotation
                    End Site
                    {
                        OFFSET 0.000000 0.169735 0.000000
                    }
                }
            }
            JOINT LeftShoulder
            {
                OFFSET 0.033906 0.112354 -0.007590
                CHANNELS 3 Zrotation Xrotation Yrotation
                JOINT LeftArm
                {
                    OFFSET 0.124592 0.000000 -0.000000
                    CHANNELS 3 Zrotation Xrotation Yrotation
                    JOINT LeftForeArm
                    {
                        OFFSET 0.264466 -0.000000 0.000000
                        CHANNELS 3 Zrotation Xrotation Yrotation
                        JOINT LeftHand
                        {
                            OFFSET 0.245659 -0.000000 0.000000
                            CHANNELS 3 Zrotation Xrotation Yrotation
                            End Site
                            {
                                OFFSET 0.127301 0.000000 0.000000
                            }
                        }
                    }
                }
            }
            JOINT RightShoulder
            {
                OFFSET -0.033906 0.112354 -0.007590
                CHANNELS 3 Zrotation Xrotation Yrotation
                JOINT RightArm
                {
                    OFFSET -0.124592 -0.000000 0.000000
                    CHANNELS 3 Zrotation Xrotation Yrotation
                    JOINT RightForeArm
                    {
                        OFFSET -0.264466 0.000000 0.000000
                        CHANNELS 3 Zrotation Xrotation Yrotation
                        JOINT RightHand
                        {
                            OFFSET -0.245659 -0.000000 0.000000
                            CHANNELS 3 Zrotation Xrotation Yrotation
                            End Site
                            {
                                OFFSET -0.127301 0.000000 0.000000
                            }
                        }
                    }
                }
            }
        }
    }
    JOINT LeftUpLeg
    {
        OFFSET 0.084867 -0.000000 -0.000000
        CHANNELS 3 Zrotation Xrotation Yrotation
        JOINT LeftLeg
        {
            OFFSET -0.000000 -0.414866 -0.000000
            CHANNELS 3 Zrotation Xrotation Yrotation
            JOINT LeftFoot
            {
                OFFSET -0.000000 -0.344526 -0.000000
                CHANNELS 3 Zrotation Xrotation Yrotation
                JOINT LeftToeBase
                {
                    OFFSET 0.000000 -0.055164 0.127301
                    CHANNELS 3 Zrotation Xrotation Yrotation
                    End Site
                    {
                        OFFSET 0.000000 0.000000 0.033947
                    }
                }
            }
        }
    }
    JOINT RightUpLeg
    {
        OFFSET -0.084867 0.000000 0.000000
        CHANNELS 3 Zrotation Xrotation Yrotation
        JOINT RightLeg
        {
            OFFSET 0.000000 -0.414866 0.000000
            CHANNELS 3 Zrotation Xrotation Yrotation
            JOINT RightFoot
            {
                OFFSET -0.000000 -0.344526 0.000000
                CHANNELS 3 Zrotation Xrotation Yrotation
                JOINT RightToeBase
                {
                    OFFSET -0.000000 -0.055164 0.127301
                    CHANNELS 3 Zrotation Xrotation Yrotation
                    End Site
                    {
                        OFFSET 0.000000 0.000000 0.033947
                    }
                }
            }
        }
    }
}
MOTION
Frames:    5
Frame Time:    0.050000
1.099540    0.834915    1.138559    -0.751734    3.256999    97.576942    0.179148    -8.478230    1.214924    -0.584472    7.750505    1.269527    -8.434575    15.813840    11.393239    -4.854681    10.375570    10.137608    -32.320389    -4.627204    -6.910100    -43.658356    -0.762607    -7.445371    -0.294854    -1.647689    -10.147213    38.167980    2.977704    7.783462    31.703648    9.907140    2.894649    46.841621    9.143232    11.463441    -0.658978    0.771845    40.491711    -27.313721    10.412066    -15.668238    2.326292    -3.031909    2.972334    -0.000000    5.546776    0.000004    1.374882    -0.944141    4.645968    -0.000000    -0.477222    -0.000006    2.180722    -2.685862    5.653069    -0.000001    7.378277    0.000002    1.096458    -0.150361    4.843507    -0.000000    -0.170988    -0.000000    
1.139112    0.809812    1.128534    -2.879754    5.651884    119.345970    0.547660    -8.943422    3.518537    -0.399267    14.204499    3.467395    -5.834666    9.698188    20.849174    -7.343786    0.344711    20.344652    8.828504    -1.464397    6.678333    -82.951469    33.554550    -5.351226    -1.072696    -2.838720    -20.710640    -1.338992    -2.798791    5.512421    -12.315619    -2.884004    9.908629    83.424324    52.788448    12.900941    1.162505    -11.465146    5.829076    8.270286    -6.303781    1.136133    -3.082056    -14.230186    -5.524451    0.000001    29.026648    0.000006    -4.382842    -10.742129    5.998771    0.000000    -6.278671    0.000001    -1.788692    -1.476687    -16.535948    -0.000002    15.750524    -0.000000    -4.400396    -14.615623    15.049721    -0.000000    -2.427271    -0.000003    
1.138543    0.808824    1.125508    -4.234745    4.848952    120.303772    0.740452    -9.241940    4.600770    -0.918147    14.601963    4.625452    -5.808521    9.308565    19.929592    -7.865820    -1.469077    19.218513    5.710383    2.904028    8.400358    -76.315399    35.448513    -13.262071    -1.016902    -3.039306    -18.509407    6.151957    -3.426910    4.404821    -11.165280    5.146006    5.306224    69.708893    52.590427    29.429869    0.433611    -8.585729    2.902088    14.529011    -3.380464    3.744888    -2.836965    -16.464640    -1.296287    -0.000002    28.738701    0.000008    -6.253525    -10.529806    6.509147    0.000001    -9.193216    0.000003    -1.269147    -2.649482    -12.441323    0.000002    15.209026    -0.000010    -8.161661    -15.192940    9.806734    0.000000    -2.160733    0.000005    
1.141862    0.808349    1.119493    -4.556586    4.312538    123.656219    0.720737    -9.274755    4.463129    -0.765438    14.697217    4.454556    -6.074567    9.312368    19.912096    -7.919323    -1.748076    19.116236    5.181128    3.811894    9.563251    -75.403038    37.804241    -14.685616    -1.118139    -3.453040    -17.954906    5.996852    -4.150092    4.486063    -11.025801    6.100819    4.865037    67.621124    54.043293    31.653692    0.441266    -9.362471    2.710570    10.391405    -6.005041    3.375806    -3.115427    -17.031303    -0.649351    -0.000001    26.845648    0.000003    -7.038919    -10.958887    6.424493    -0.000001    -8.905520    -0.000002    -1.077357    -2.073628    -14.166363    -0.000002    14.583447    0.000003    -7.643958    -15.384158    8.169703    0.000001    -1.928493    0.000009    
1.145823    0.808069    1.112455    -5.033780    3.703858    127.097763    0.787612    -9.552960    4.735309    -0.917103    14.620505    4.749500    -6.053104    9.357162    19.956594    -7.855109    -1.607849    19.181429    5.145304    3.685164    9.836426    -76.597603    38.593983    -14.441262    -0.971751    -3.136040    -17.226093    5.937874    -4.014320    4.453051    -11.022368    5.874408    5.066506    69.262596    54.164101    30.096266    0.379553    -8.460785    2.578005    11.255414    -6.209372    3.599716    -3.815032    -18.202530    3.715790    -0.000001    25.573830    0.000004    -7.063677    -11.103027    8.300786    0.000001    -8.012156    0.000003    -0.847810    -1.539920    -15.017049    -0.000001    13.772493    0.000011    -7.907197    -15.444823    5.743316    -0.000000    -1.780705    0.000006    
